<?xml version="1.0" encoding="UTF-8" standalone="no"?>
<svg
        version="1.0"
        width="673.82721pt"
        height="665.22644pt"
        viewBox="0 0 673.82721 665.22644"
        preserveAspectRatio="xMidYMid"
        id="svg144"
        sodipodi:docname="_12e8ac56-89fb-430c-8555-2b7a372af780.svg"
        inkscape:version="1.2.1 (9c6d41e, 2022-07-14)"
        xmlns:inkscape="http://www.inkscape.org/namespaces/inkscape"
        xmlns:sodipodi="http://sodipodi.sourceforge.net/DTD/sodipodi-0.dtd"
        xmlns="http://www.w3.org/2000/svg"
        xmlns:svg="http://www.w3.org/2000/svg">
    <defs
            id="defs148" />
    <sodipodi:namedview
            id="namedview146"
            pagecolor="#ffffff"
            bordercolor="#000000"
            borderopacity="0.25"
            inkscape:showpageshadow="2"
            inkscape:pageopacity="0.0"
            inkscape:pagecheckerboard="0"
            inkscape:deskcolor="#d1d1d1"
            inkscape:document-units="pt"
            showgrid="false"
            inkscape:zoom="0.17285156"
            inkscape:cx="439.68362"
            inkscape:cy="445.46893"
            inkscape:window-width="1309"
            inkscape:window-height="456"
            inkscape:window-x="0"
            inkscape:window-y="25"
            inkscape:window-maximized="0"
            inkscape:current-layer="svg144" />
    <metadata
            id="metadata132">
        Created by potrace 1.16, written by Peter Selinger 2001-2019
    </metadata>
    <g
            transform="matrix(0.1,0,0,-0.1,-181.17278,847.65282)"
            fill="#000000"
            stroke="none"
            id="g142">
        <path
                d="M 4835,8466 C 4229,8398 3680,8192 3193,7848 3052,7748 2960,7670 2822,7536 2442,7165 2174,6752 2006,6279 1819,5749 1767,5202 1850,4633 c 26,-173 42,-244 97,-433 153,-519 425,-978 808,-1364 151,-153 256,-242 421,-359 120,-85 356,-228 482,-291 182,-92 467,-200 672,-255 305,-82 694,-121 1018,-102 547,32 1000,161 1477,420 l 140,76 -1380,5 -1380,5 -88,34 c -98,38 -138,72 -163,138 -49,127 61,238 163,165 31,-22 35,-22 391,-22 h 359 l 26,39 c 15,22 48,53 74,68 l 48,28 1276,3 1275,2 98,110 c 53,60 133,153 176,207 l 78,98 -1546,5 c -1694,6 -1569,2 -1816,65 -272,68 -550,202 -776,373 -100,75 -296,267 -373,365 -192,243 -340,536 -408,809 -51,202 -62,303 -63,533 -1,232 13,350 64,550 112,446 392,884 745,1168 330,265 678,422 1105,499 124,22 132,22 1372,26 l 1247,3 -67,61 c -189,171 -454,342 -755,488 -334,161 -644,254 -1022,305 -163,23 -627,29 -790,11 z"
                id="path134" />
        <path
                d="m 5185,7125 c -238,-38 -487,-167 -655,-339 -36,-36 -69,-66 -75,-66 -5,0 -37,-17 -70,-37 -236,-144 -444,-422 -548,-733 -124,-372 -115,-814 23,-1151 118,-287 354,-570 581,-698 30,-17 98,-73 150,-123 146,-144 321,-236 527,-278 98,-20 129,-20 1594,-20 h 1494 l 51,118 c 99,224 195,511 218,650 l 7,42 h -367 c -241,0 -364,-3 -360,-10 3,-5 13,-10 20,-10 24,0 87,-62 106,-105 34,-73 15,-169 -42,-222 -59,-54 -41,-53 -986,-53 h -874 l -50,-25 c -172,-88 -448,-155 -634,-155 h -35 v 108 109 l 118,6 c 369,19 710,219 917,537 140,215 205,433 205,693 0,338 -116,630 -343,866 -202,208 -519,351 -781,351 -120,0 -116,-4 -116,111 v 99 h 93 c 99,0 237,-19 358,-50 73,-19 126,-20 1258,-22 649,-2 1181,-1 1181,1 0,23 -137,233 -224,343 l -61,78 -1300,-1 c -1009,-1 -1318,-4 -1380,-14 z"
                id="path136" />
        <path
                d="m 6462,6210 c 2,-3 29,-50 60,-106 68,-119 113,-228 144,-344 l 22,-85 124,2 c 114,3 124,4 141,25 90,114 45,108 849,108 536,0 678,3 678,13 0,27 -52,236 -76,309 l -26,78 -959,2 c -527,2 -958,1 -957,-2 z"
                id="path138" />
        <path
                d="m 6711,5233 c -11,-102 -20,-159 -46,-270 l -5,-23 h 939 c 847,0 939,2 945,16 3,9 6,101 6,205 v 189 h -913 -914 z"
                id="path140" />
    </g>
</svg>
